# xmcd
#
# Track frame offsets:
#	197
#	17562
#	46462
#	78345
#	111442
#	136525
#	188087
#	243307
#	268357
#
# Disc length: 4182
#
# Revision: 3
# Processed by: cddbd v1.5.1PL0 Copyright (c) Steve Scherf et al.
# Submitted via: CDex 1.50beta10
# Normalized: r2:TDELIM( - )
#
DISCID=73105409
DTITLE=Quetzal and Patrick Bauwens - Carnet d'Emeraude - Premier Recueil
DYEAR=1997
DGENRE=New Age
TTITLE0=Friedemann - The eye of the Dragonfly
TTITLE1=Marc Moulin - Tôt ou tard
TTITLE2=Charles Loos - Nonchalance
TTITLE3=Philip Catherine - Oostduinkerke
TTITLE4=Nono Garcia - Levante
TTITLE5=Wim Mertens - Casting no shadow
TTITLE6=Mireille Gleizes - Quatrième suite
TTITLE7=Castellucci Stringtet - Is that you ?
TTITLE8=Eric Legnini - Laurie
EXTD=YEAR: 1997
EXTT0=
EXTT1=
EXTT2=
EXTT3=
EXTT4=
EXTT5=
EXTT6=
EXTT7=
EXTT8=
PLAYORDER=
